<mxfile host="app.diagrams.net" modified="2022-06-26T08:57:03.110Z" agent="5.0 (Windows NT 10.0; Win64; x64) AppleWebKit/537.36 (KHTML, like Gecko) Chrome/102.0.0.0 Safari/537.36" etag="SsbUefdrFs2jeCVM_3fw" version="20.0.3" type="github">
  <diagram id="C5RBs43oDa-KdzZeNtuy" name="Page-1">
    <mxGraphModel dx="521" dy="285" grid="1" gridSize="10" guides="1" tooltips="1" connect="1" arrows="1" fold="1" page="1" pageScale="1" pageWidth="827" pageHeight="1169" math="0" shadow="0">
      <root>
        <mxCell id="WIyWlLk6GJQsqaUBKTNV-0" />
        <mxCell id="WIyWlLk6GJQsqaUBKTNV-1" parent="WIyWlLk6GJQsqaUBKTNV-0" />
        <mxCell id="AUcS2tF5ko8HKRd4lXUs-4" value="" style="edgeStyle=orthogonalEdgeStyle;rounded=0;orthogonalLoop=1;jettySize=auto;html=1;" edge="1" parent="WIyWlLk6GJQsqaUBKTNV-1" source="AUcS2tF5ko8HKRd4lXUs-2" target="AUcS2tF5ko8HKRd4lXUs-3">
          <mxGeometry relative="1" as="geometry" />
        </mxCell>
        <mxCell id="AUcS2tF5ko8HKRd4lXUs-2" value="Tombol print==1" style="rhombus;whiteSpace=wrap;html=1;" vertex="1" parent="WIyWlLk6GJQsqaUBKTNV-1">
          <mxGeometry x="120" y="80" width="80" height="80" as="geometry" />
        </mxCell>
        <mxCell id="AUcS2tF5ko8HKRd4lXUs-6" value="" style="edgeStyle=orthogonalEdgeStyle;rounded=0;orthogonalLoop=1;jettySize=auto;html=1;fontColor=#F8CECC;" edge="1" parent="WIyWlLk6GJQsqaUBKTNV-1" source="AUcS2tF5ko8HKRd4lXUs-3" target="AUcS2tF5ko8HKRd4lXUs-5">
          <mxGeometry relative="1" as="geometry" />
        </mxCell>
        <mxCell id="AUcS2tF5ko8HKRd4lXUs-3" value="create document" style="whiteSpace=wrap;html=1;fillColor=#CCCCCC;" vertex="1" parent="WIyWlLk6GJQsqaUBKTNV-1">
          <mxGeometry x="100" y="180" width="120" height="60" as="geometry" />
        </mxCell>
        <mxCell id="AUcS2tF5ko8HKRd4lXUs-8" value="" style="edgeStyle=orthogonalEdgeStyle;rounded=0;orthogonalLoop=1;jettySize=auto;html=1;fontColor=#F8CECC;" edge="1" parent="WIyWlLk6GJQsqaUBKTNV-1" source="AUcS2tF5ko8HKRd4lXUs-5" target="AUcS2tF5ko8HKRd4lXUs-7">
          <mxGeometry relative="1" as="geometry" />
        </mxCell>
        <mxCell id="AUcS2tF5ko8HKRd4lXUs-5" value="convert doc_id to QR code" style="whiteSpace=wrap;html=1;fillColor=#FFFFFF;" vertex="1" parent="WIyWlLk6GJQsqaUBKTNV-1">
          <mxGeometry x="100" y="260" width="120" height="60" as="geometry" />
        </mxCell>
        <mxCell id="AUcS2tF5ko8HKRd4lXUs-10" value="" style="edgeStyle=orthogonalEdgeStyle;rounded=0;orthogonalLoop=1;jettySize=auto;html=1;fontColor=#F8CECC;" edge="1" parent="WIyWlLk6GJQsqaUBKTNV-1" source="AUcS2tF5ko8HKRd4lXUs-7" target="AUcS2tF5ko8HKRd4lXUs-9">
          <mxGeometry relative="1" as="geometry" />
        </mxCell>
        <mxCell id="AUcS2tF5ko8HKRd4lXUs-7" value="Tampilkan QR code (doc_id)" style="shape=parallelogram;perimeter=parallelogramPerimeter;whiteSpace=wrap;html=1;fixedSize=1;fillColor=#FFFFFF;" vertex="1" parent="WIyWlLk6GJQsqaUBKTNV-1">
          <mxGeometry x="100" y="350" width="120" height="60" as="geometry" />
        </mxCell>
        <mxCell id="AUcS2tF5ko8HKRd4lXUs-12" value="" style="edgeStyle=orthogonalEdgeStyle;rounded=0;orthogonalLoop=1;jettySize=auto;html=1;fontColor=#F8CECC;" edge="1" parent="WIyWlLk6GJQsqaUBKTNV-1" source="AUcS2tF5ko8HKRd4lXUs-9" target="AUcS2tF5ko8HKRd4lXUs-11">
          <mxGeometry relative="1" as="geometry" />
        </mxCell>
        <mxCell id="AUcS2tF5ko8HKRd4lXUs-9" value="scan QR code==1" style="rhombus;whiteSpace=wrap;html=1;fillColor=#FFFFFF;" vertex="1" parent="WIyWlLk6GJQsqaUBKTNV-1">
          <mxGeometry x="120" y="440" width="80" height="80" as="geometry" />
        </mxCell>
        <mxCell id="AUcS2tF5ko8HKRd4lXUs-14" value="" style="edgeStyle=orthogonalEdgeStyle;rounded=0;orthogonalLoop=1;jettySize=auto;html=1;fontColor=#F8CECC;" edge="1" parent="WIyWlLk6GJQsqaUBKTNV-1" source="AUcS2tF5ko8HKRd4lXUs-11" target="AUcS2tF5ko8HKRd4lXUs-13">
          <mxGeometry relative="1" as="geometry" />
        </mxCell>
        <mxCell id="AUcS2tF5ko8HKRd4lXUs-11" value="upload file==1" style="rhombus;whiteSpace=wrap;html=1;fillColor=#FFFFFF;" vertex="1" parent="WIyWlLk6GJQsqaUBKTNV-1">
          <mxGeometry x="120" y="540" width="80" height="80" as="geometry" />
        </mxCell>
        <mxCell id="AUcS2tF5ko8HKRd4lXUs-17" value="" style="edgeStyle=orthogonalEdgeStyle;rounded=0;orthogonalLoop=1;jettySize=auto;html=1;fontColor=#F8CECC;" edge="1" parent="WIyWlLk6GJQsqaUBKTNV-1" source="AUcS2tF5ko8HKRd4lXUs-13" target="AUcS2tF5ko8HKRd4lXUs-16">
          <mxGeometry relative="1" as="geometry" />
        </mxCell>
        <mxCell id="AUcS2tF5ko8HKRd4lXUs-13" value="update document&lt;br&gt;create feedback, transaction, &lt;br&gt;get device" style="whiteSpace=wrap;html=1;fillColor=#CCCCCC;" vertex="1" parent="WIyWlLk6GJQsqaUBKTNV-1">
          <mxGeometry x="100" y="640" width="120" height="60" as="geometry" />
        </mxCell>
        <mxCell id="AUcS2tF5ko8HKRd4lXUs-16" value="" style="shape=parallelogram;perimeter=parallelogramPerimeter;whiteSpace=wrap;html=1;fixedSize=1;fillColor=#FFFFFF;" vertex="1" parent="WIyWlLk6GJQsqaUBKTNV-1">
          <mxGeometry x="100" y="730" width="120" height="60" as="geometry" />
        </mxCell>
      </root>
    </mxGraphModel>
  </diagram>
</mxfile>
